<svg xmlns="http://www.w3.org/2000/svg" viewBox="0 0 128 128">
  <rect width="128" height="128" rx="28" fill="#f0fdf4"/>
  <circle cx="64" cy="64" r="43" fill="#dcfce7" stroke="#22c55e" stroke-width="5"/>
  <path d="M63 92c-2.4 0-4.4-2-4.4-4.4V61.8c0-2.4 2-4.4 4.4-4.4s4.4 2 4.4 4.4v25.8c0 2.4-2 4.4-4.4 4.4z" fill="#15803d"/>
  <path d="M58.5 61.7c-13.5 1.1-24.7-7-29.2-21.6 14.4-4.8 28.4 1.1 34.5 14.5 1.4 3.2-1.8 6.8-5.3 7.1z" fill="#86efac"/>
  <path d="M68.2 58.1c5.2-13.5 18.2-20.5 33.5-17.4-1.9 15.5-12.7 25.3-27.4 25.8-4 .1-7.6-4.7-6.1-8.4z" fill="#4ade80"/>
  <path d="M63.5 75.5c-7.6-7.2-8.9-17.3-3.2-27.1 9.8 5.5 14.2 15.5 10.9 25.9-1 3.4-5.3 3.5-7.7 1.2z" fill="#16a34a"/>
</svg>
